<mxfile host="app.diagrams.net" agent="Mozilla/5.0 (Macintosh; Intel Mac OS X 10_15_7) AppleWebKit/537.36 (KHTML, like Gecko) Chrome/132.0.0.0 Safari/537.36" version="26.0.6">
  <diagram name="Page-1" id="dDBxg44UEtlxHk8DGje-">
    <mxGraphModel dx="1863" dy="644" grid="1" gridSize="10" guides="1" tooltips="1" connect="1" arrows="1" fold="1" page="1" pageScale="1" pageWidth="850" pageHeight="1100" math="0" shadow="0">
      <root>
        <mxCell id="0" />
        <mxCell id="1" parent="0" />
        <mxCell id="Fb19VCxpWriGYr10LFbI-3" value="" style="edgeStyle=orthogonalEdgeStyle;rounded=0;orthogonalLoop=1;jettySize=auto;html=1;" edge="1" parent="1" source="Fb19VCxpWriGYr10LFbI-1" target="Fb19VCxpWriGYr10LFbI-2">
          <mxGeometry relative="1" as="geometry" />
        </mxCell>
        <mxCell id="Fb19VCxpWriGYr10LFbI-5" value="" style="edgeStyle=orthogonalEdgeStyle;rounded=0;orthogonalLoop=1;jettySize=auto;html=1;" edge="1" parent="1" source="Fb19VCxpWriGYr10LFbI-1" target="Fb19VCxpWriGYr10LFbI-4">
          <mxGeometry relative="1" as="geometry" />
        </mxCell>
        <mxCell id="Fb19VCxpWriGYr10LFbI-1" value="99, 1, 3, 5 ,7 9, &lt;b&gt;&lt;font style=&quot;color: rgb(0, 102, 0);&quot;&gt;98&lt;/font&gt;&lt;/b&gt;" style="rounded=1;whiteSpace=wrap;html=1;" vertex="1" parent="1">
          <mxGeometry x="360" y="170" width="120" height="60" as="geometry" />
        </mxCell>
        <mxCell id="Fb19VCxpWriGYr10LFbI-8" value="" style="edgeStyle=orthogonalEdgeStyle;rounded=0;orthogonalLoop=1;jettySize=auto;html=1;" edge="1" parent="1" source="Fb19VCxpWriGYr10LFbI-2" target="Fb19VCxpWriGYr10LFbI-7">
          <mxGeometry relative="1" as="geometry" />
        </mxCell>
        <mxCell id="Fb19VCxpWriGYr10LFbI-2" value="1, 3, 5, 7, &lt;font style=&quot;color: rgb(0, 102, 0);&quot;&gt;9&lt;/font&gt;" style="rounded=1;whiteSpace=wrap;html=1;" vertex="1" parent="1">
          <mxGeometry x="240" y="290" width="120" height="60" as="geometry" />
        </mxCell>
        <mxCell id="Fb19VCxpWriGYr10LFbI-4" value="&lt;font style=&quot;color: rgb(0, 102, 0);&quot;&gt;99&lt;/font&gt;" style="whiteSpace=wrap;html=1;rounded=1;" vertex="1" parent="1">
          <mxGeometry x="460" y="290" width="120" height="60" as="geometry" />
        </mxCell>
        <mxCell id="Fb19VCxpWriGYr10LFbI-6" value="1, 3, 5, 7, 9, 98, 99" style="rounded=1;whiteSpace=wrap;html=1;" vertex="1" parent="1">
          <mxGeometry x="550" y="120" width="120" height="60" as="geometry" />
        </mxCell>
        <mxCell id="Fb19VCxpWriGYr10LFbI-10" value="" style="edgeStyle=orthogonalEdgeStyle;rounded=0;orthogonalLoop=1;jettySize=auto;html=1;" edge="1" parent="1" source="Fb19VCxpWriGYr10LFbI-7" target="Fb19VCxpWriGYr10LFbI-9">
          <mxGeometry relative="1" as="geometry" />
        </mxCell>
        <mxCell id="Fb19VCxpWriGYr10LFbI-7" value="1, 3, 5, &lt;font style=&quot;color: rgb(0, 102, 0);&quot;&gt;&lt;b&gt;7&lt;/b&gt;&lt;/font&gt;" style="rounded=1;whiteSpace=wrap;html=1;" vertex="1" parent="1">
          <mxGeometry x="160" y="410" width="120" height="60" as="geometry" />
        </mxCell>
        <mxCell id="Fb19VCxpWriGYr10LFbI-12" value="" style="edgeStyle=orthogonalEdgeStyle;rounded=0;orthogonalLoop=1;jettySize=auto;html=1;" edge="1" parent="1" source="Fb19VCxpWriGYr10LFbI-9" target="Fb19VCxpWriGYr10LFbI-11">
          <mxGeometry relative="1" as="geometry" />
        </mxCell>
        <mxCell id="Fb19VCxpWriGYr10LFbI-9" value="1, 3, &lt;font style=&quot;color: rgb(0, 102, 0);&quot;&gt;&lt;b&gt;5&lt;/b&gt;&lt;/font&gt;" style="whiteSpace=wrap;html=1;rounded=1;" vertex="1" parent="1">
          <mxGeometry x="90" y="510" width="120" height="60" as="geometry" />
        </mxCell>
        <mxCell id="Fb19VCxpWriGYr10LFbI-14" value="" style="edgeStyle=orthogonalEdgeStyle;rounded=0;orthogonalLoop=1;jettySize=auto;html=1;" edge="1" parent="1" source="Fb19VCxpWriGYr10LFbI-11" target="Fb19VCxpWriGYr10LFbI-13">
          <mxGeometry relative="1" as="geometry" />
        </mxCell>
        <mxCell id="Fb19VCxpWriGYr10LFbI-11" value="1, &lt;font style=&quot;color: rgb(0, 102, 0);&quot;&gt;&lt;b&gt;3&lt;/b&gt;&lt;/font&gt;" style="whiteSpace=wrap;html=1;rounded=1;" vertex="1" parent="1">
          <mxGeometry x="40" y="620" width="120" height="60" as="geometry" />
        </mxCell>
        <mxCell id="Fb19VCxpWriGYr10LFbI-13" value="&lt;b&gt;&lt;font style=&quot;color: rgb(0, 102, 0);&quot;&gt;1&lt;/font&gt;&lt;/b&gt;" style="whiteSpace=wrap;html=1;rounded=1;" vertex="1" parent="1">
          <mxGeometry x="-10" y="720" width="120" height="60" as="geometry" />
        </mxCell>
      </root>
    </mxGraphModel>
  </diagram>
</mxfile>
